<svg width="190" height="60" viewBox="0 0 190 60" fill="none" xmlns="http://www.w3.org/2000/svg">
<path d="M2 0H0V60H2V0Z" fill="black"/>
<path d="M6 0H4V60H6V0Z" fill="black"/>
<path d="M10 0H8V60H10V0Z" fill="black"/>
<path d="M14 0H12V60H14V0Z" fill="black"/>
<path d="M16 0H14V60H16V0Z" fill="black"/>
<path d="M18 0H16V60H18V0Z" fill="black"/>
<path d="M20 0H18V60H20V0Z" fill="black"/>
<path d="M24 0H22V60H24V0Z" fill="black"/>
<path d="M26 0H24V60H26V0Z" fill="black"/>
<path d="M34 0H32V60H34V0Z" fill="black"/>
<path d="M40 0H38V60H40V0Z" fill="black"/>
<path d="M46 0H44V60H46V0Z" fill="black"/>
<path d="M48 0H46V60H48V0Z" fill="black"/>
<path d="M52 0H50V60H52V0Z" fill="black"/>
<path d="M54 0H52V60H54V0Z" fill="black"/>
<path d="M58 0H56V60H58V0Z" fill="black"/>
<path d="M60 0H58V60H60V0Z" fill="black"/>
<path d="M62 0H60V60H62V0Z" fill="black"/>
<path d="M68 0H66V60H68V0Z" fill="black"/>
<path d="M70 0H68V60H70V0Z" fill="black"/>
<path d="M76 0H74V60H76V0Z" fill="black"/>
<path d="M84 0H82V60H84V0Z" fill="black"/>
<path d="M86 0H84V60H86V0Z" fill="black"/>
<path d="M90 0H88V60H90V0Z" fill="black"/>
<path d="M94 0H92V60H94V0Z" fill="black"/>
<path d="M98 0H96V60H98V0Z" fill="black"/>
<path d="M102 0H100V60H102V0Z" fill="black"/>
<path d="M104 0H102V60H104V0Z" fill="black"/>
<path d="M110 0H108V60H110V0Z" fill="black"/>
<path d="M112 0H110V60H112V0Z" fill="black"/>
<path d="M116 0H114V60H116V0Z" fill="black"/>
<path d="M118 0H116V60H118V0Z" fill="black"/>
<path d="M124 0H122V60H124V0Z" fill="black"/>
<path d="M126 0H124V60H126V0Z" fill="black"/>
<path d="M130 0H128V60H130V0Z" fill="black"/>
<path d="M132 0H130V60H132V0Z" fill="black"/>
<path d="M134 0H132V60H134V0Z" fill="black"/>
<path d="M138 0H136V60H138V0Z" fill="black"/>
<path d="M144 0H142V60H144V0Z" fill="black"/>
<path d="M154 0H152V60H154V0Z" fill="black"/>
<path d="M158 0H156V60H158V0Z" fill="black"/>
<path d="M168 0H166V60H168V0Z" fill="black"/>
<path d="M172 0H170V60H172V0Z" fill="black"/>
<path d="M180 0H178V60H180V0Z" fill="black"/>
<path d="M186 0H184V60H186V0Z" fill="black"/>
<path d="M190 0H188V60H190V0Z" fill="black"/>
</svg>
