<svg width="58" height="50" viewBox="0 0 58 50" fill="none" xmlns="http://www.w3.org/2000/svg">
<path d="M7.99999 39V15.44C7.99999 7.46 11.655 1 16.17 1H42.615C47.345 1 51 7.46 51 15.44V39" fill="#AAA0C7"/>
<path d="M7.99999 39V15.44C7.99999 7.46 11.655 1 16.17 1H42.615C47.345 1 51 7.46 51 15.44V39" stroke="#0B0F14" stroke-width="0.5" stroke-miterlimit="10" stroke-linecap="round" stroke-linejoin="round"/>
<path d="M13 49.25C13.1381 49.25 13.25 49.1381 13.25 49V25C13.25 21.4619 10.5381 18.75 7 18.75C3.46193 18.75 0.75 21.4619 0.75 25V45C0.75 47.3381 2.66193 49.25 5 49.25H13Z" fill="#AAA0C7" stroke="#0B0F14" stroke-width="0.5" stroke-miterlimit="10" stroke-linecap="round" stroke-linejoin="round"/>
<path d="M44.75 49C44.75 49.1381 44.8619 49.25 45 49.25H53C55.3381 49.25 57.25 47.3381 57.25 45V25C57.25 21.4619 54.5381 18.75 51 18.75C47.4619 18.75 44.75 21.4619 44.75 25V49Z" fill="#AAA0C7" stroke="#0B0F14" stroke-width="0.5" stroke-miterlimit="10" stroke-linecap="round" stroke-linejoin="round"/>
<path d="M13 37.75C12.8619 37.75 12.75 37.8619 12.75 38V49C12.75 49.1381 12.8619 49.25 13 49.25H45C45.1381 49.25 45.25 49.1381 45.25 49V38C45.25 37.8619 45.1381 37.75 45 37.75H13Z" fill="#AAA0C7" stroke="#0B0F14" stroke-width="0.5" stroke-miterlimit="10" stroke-linecap="round" stroke-linejoin="round"/>
</svg>
